<?xml version="1.0" encoding="UTF-8" standalone="no"?>
<!-- Created with Inkscape (http://www.inkscape.org/) -->

<svg
   xmlns:dc="http://purl.org/dc/elements/1.1/"
   xmlns:cc="http://creativecommons.org/ns#"
   xmlns:rdf="http://www.w3.org/1999/02/22-rdf-syntax-ns#"
   xmlns:svg="http://www.w3.org/2000/svg"
   xmlns="http://www.w3.org/2000/svg"
   xmlns:sodipodi="http://sodipodi.sourceforge.net/DTD/sodipodi-0.dtd"
   xmlns:inkscape="http://www.inkscape.org/namespaces/inkscape"
   width="200"
   height="200"
   viewBox="0 0 52.916665 52.916668"
   version="1.1"
   id="svg21099"
   inkscape:version="0.92.5 (2060ec1f9f, 2020-04-08)"
   sodipodi:docname="01d.svg">
  <defs
     id="defs21093" />
  <sodipodi:namedview
     id="base"
     pagecolor="#ffffff"
     bordercolor="#666666"
     borderopacity="1.0"
     inkscape:pageopacity="0.0"
     inkscape:pageshadow="2"
     inkscape:zoom="1.4"
     inkscape:cx="281.19063"
     inkscape:cy="112.78025"
     inkscape:document-units="mm"
     inkscape:current-layer="layer1"
     showgrid="false"
     units="px"
     inkscape:window-width="1848"
     inkscape:window-height="1016"
     inkscape:window-x="72"
     inkscape:window-y="27"
     inkscape:window-maximized="1" />
  <metadata
     id="metadata21096">
    <rdf:RDF>
      <cc:Work
         rdf:about="">
        <dc:format>image/svg+xml</dc:format>
        <dc:type
           rdf:resource="http://purl.org/dc/dcmitype/StillImage" />
        <dc:title></dc:title>
      </cc:Work>
    </rdf:RDF>
  </metadata>
  <g
     inkscape:label="Layer 1"
     inkscape:groupmode="layer"
     id="layer1"
     transform="translate(0,-244.08332)">
    <g
       id="g2266"
       transform="matrix(0.35277777,0,0,-0.35277777,-511.387,425.71985)"
       style="stroke:#ffffff;stroke-opacity:1">
      <path
         d="m 0,0 c 2.701,-0.039 4.922,2.12 4.96,4.821 0.039,2.7 -2.12,4.921 -4.82,4.96 -0.047,10e-4 -0.094,10e-4 -0.14,0 -0.086,0 -0.166,-0.02 -0.25,-0.025 1.361,6.619 -2.902,13.088 -9.521,14.449 -0.808,0.167 -1.63,0.25 -2.455,0.251 -3.835,-0.009 -7.44,-1.825 -9.73,-4.9 -0.018,0 -0.034,0.006 -0.051,0.006 -5.402,0 -9.782,-4.379 -9.782,-9.782 0,-5.402 4.38,-9.781 9.782,-9.781 z"
         style="fill:none;stroke:#ffffff;stroke-width:2;stroke-linecap:round;stroke-linejoin:round;stroke-miterlimit:4;stroke-dasharray:none;stroke-opacity:1"
         id="path2268"
         inkscape:connector-curvature="0" />
    </g>
    <g
       id="g2270"
       transform="matrix(0.35277777,0,0,-0.35277777,-506.86754,415.99384)"
       style="stroke:#ffffff;stroke-opacity:1">
      <path
         d="M 0,0 V 0 C 0.323,-1.503 1.497,-2.677 3,-3 1.497,-3.323 0.323,-4.497 0,-6 c -0.323,1.503 -1.497,2.677 -3,3 1.503,0.323 2.677,1.497 3,3 z"
         style="fill:none;stroke:#ffffff;stroke-width:2;stroke-linecap:round;stroke-linejoin:round;stroke-miterlimit:4;stroke-dasharray:none;stroke-opacity:1"
         id="path2272"
         inkscape:connector-curvature="0" />
    </g>
    <g
       id="g2274"
       transform="matrix(0.35277777,0,0,-0.35277777,-512.67425,418.33632)"
       style="stroke:#ffffff;stroke-opacity:1">
      <path
         d="M 0,0 C 0.872,5.88 5.916,10.235 11.86,10.24"
         style="fill:none;stroke:#ffffff;stroke-width:2;stroke-linecap:round;stroke-linejoin:round;stroke-miterlimit:4;stroke-dasharray:none;stroke-opacity:1"
         id="path2276"
         inkscape:connector-curvature="0" />
    </g>
    <g
       id="g2278"
       transform="matrix(0.35277777,0,0,-0.35277777,-510.06371,422.88712)"
       style="stroke:#ffffff;stroke-opacity:1">
      <path
         d="M 0,0 0.02,-0.02 C 1.435,-0.575 2.94,-0.859 4.46,-0.86"
         style="fill:none;stroke:#ffffff;stroke-width:2;stroke-linecap:round;stroke-linejoin:round;stroke-miterlimit:4;stroke-dasharray:none;stroke-opacity:1"
         id="path2280"
         inkscape:connector-curvature="0" />
    </g>
    <g
       id="g2282"
       transform="matrix(0.35277777,0,0,-0.35277777,-505.4988,421.9487)"
       style="stroke:#ffffff;stroke-opacity:1">
      <path
         d="M 0,0 C -2.241,-2.262 -5.296,-3.53 -8.48,-3.52"
         style="fill:none;stroke:#ffffff;stroke-width:2;stroke-linecap:round;stroke-linejoin:round;stroke-miterlimit:4;stroke-dasharray:none;stroke-opacity:1"
         id="path2284"
         inkscape:connector-curvature="0" />
    </g>
    <g
       id="g2286"
       transform="matrix(0.35277777,0,0,-0.35277777,-508.49037,414.72381)"
       style="stroke:#ffffff;stroke-opacity:1">
      <path
         d="M 0,0 C -4.689,-4.676 -4.699,-12.268 -0.023,-16.957 2.229,-19.215 5.29,-20.483 8.48,-20.48"
         style="fill:none;stroke:#ffffff;stroke-width:2;stroke-linecap:round;stroke-linejoin:round;stroke-miterlimit:4;stroke-dasharray:none;stroke-opacity:1"
         id="path2288"
         inkscape:connector-curvature="0" />
    </g>
    <g
       id="g22044"
       transform="matrix(3.0209683,0,0,3.0209683,74.416205,-602.13602)">
      <g
         style="stroke:#ffffff;stroke-opacity:1"
         transform="matrix(0.35277777,0,0,-0.35277777,-15.880526,282.16488)"
         id="g1678">
        <path
           inkscape:connector-curvature="0"
           id="path1680"
           style="fill:none;stroke:#ffffff;stroke-width:2;stroke-linecap:round;stroke-linejoin:round;stroke-miterlimit:4;stroke-dasharray:none;stroke-opacity:1"
           d="M 0,0 V 4.754" />
      </g>
      <g
         style="stroke:#ffffff;stroke-opacity:1"
         transform="matrix(0.35277777,0,0,-0.35277777,-21.683605,285.5192)"
         id="g1682">
        <path
           inkscape:connector-curvature="0"
           id="path1684"
           style="fill:none;stroke:#ffffff;stroke-width:2;stroke-linecap:round;stroke-linejoin:round;stroke-miterlimit:4;stroke-dasharray:none;stroke-opacity:1"
           d="M 0,0 -4.12,2.377" />
      </g>
      <g
         style="stroke:#ffffff;stroke-opacity:1"
         transform="matrix(0.35277777,0,0,-0.35277777,-15.880526,297.25922)"
         id="g1686">
        <path
           inkscape:connector-curvature="0"
           id="path1688"
           style="fill:none;stroke:#ffffff;stroke-width:2;stroke-linecap:round;stroke-linejoin:round;stroke-miterlimit:4;stroke-dasharray:none;stroke-opacity:1"
           d="M 0,0 V 4.754" />
      </g>
      <g
         style="stroke:#ffffff;stroke-opacity:1"
         transform="matrix(0.35277777,0,0,-0.35277777,-8.6241163,293.06603)"
         id="g1690">
        <path
           inkscape:connector-curvature="0"
           id="path1692"
           style="fill:none;stroke:#ffffff;stroke-width:2;stroke-linecap:round;stroke-linejoin:round;stroke-miterlimit:4;stroke-dasharray:none;stroke-opacity:1"
           d="M 0,0 -4.12,2.377" />
      </g>
      <g
         style="stroke:#ffffff;stroke-opacity:1"
         transform="matrix(0.35277777,0,0,-0.35277777,-8.6129503,284.6805)"
         id="g1694">
        <path
           inkscape:connector-curvature="0"
           id="path1696"
           style="fill:none;stroke:#ffffff;stroke-width:2;stroke-linecap:round;stroke-linejoin:round;stroke-miterlimit:4;stroke-dasharray:none;stroke-opacity:1"
           d="M 0,0 -4.12,-2.377" />
      </g>
      <g
         style="stroke:#ffffff;stroke-opacity:1"
         transform="matrix(0.35277777,0,0,-0.35277777,-21.683605,292.22748)"
         id="g1698">
        <path
           inkscape:connector-curvature="0"
           id="path1700"
           style="fill:none;stroke:#ffffff;stroke-width:2;stroke-linecap:round;stroke-linejoin:round;stroke-miterlimit:4;stroke-dasharray:none;stroke-opacity:1"
           d="M 0,0 -4.12,-2.377" />
      </g>
      <g
         style="stroke:#ffffff;stroke-opacity:1"
         transform="matrix(0.35277777,0,0,-0.35277777,-15.878965,284.41144)"
         id="g1702">
        <path
           inkscape:connector-curvature="0"
           id="path1704"
           style="fill:none;stroke:#ffffff;stroke-width:2;stroke-linecap:round;stroke-linejoin:round;stroke-miterlimit:4;stroke-dasharray:none;stroke-opacity:1"
           d="m 0,0 c 7.001,0 12.678,-5.676 12.678,-12.678 0,-7.002 -5.677,-12.678 -12.678,-12.678 -7.002,0 -12.678,5.676 -12.678,12.678 C -12.678,-5.676 -7.002,0 0,0 Z" />
      </g>
    </g>
  </g>
</svg>
