<?xml version="1.0" encoding="UTF-8" standalone="no"?>
<!-- Created with Inkscape (http://www.inkscape.org/) -->

<svg
   xmlns:dc="http://purl.org/dc/elements/1.1/"
   xmlns:cc="http://creativecommons.org/ns#"
   xmlns:rdf="http://www.w3.org/1999/02/22-rdf-syntax-ns#"
   xmlns:svg="http://www.w3.org/2000/svg"
   xmlns="http://www.w3.org/2000/svg"
   xmlns:sodipodi="http://sodipodi.sourceforge.net/DTD/sodipodi-0.dtd"
   xmlns:inkscape="http://www.inkscape.org/namespaces/inkscape"
   width="200"
   height="200"
   viewBox="0 0 52.916665 52.916668"
   version="1.1"
   id="svg21099"
   inkscape:version="0.92.5 (2060ec1f9f, 2020-04-08)"
   sodipodi:docname="02d.svg">
  <defs
     id="defs21093" />
  <sodipodi:namedview
     id="base"
     pagecolor="#ffffff"
     bordercolor="#666666"
     borderopacity="1.0"
     inkscape:pageopacity="0.0"
     inkscape:pageshadow="2"
     inkscape:zoom="0.35"
     inkscape:cx="-121.42857"
     inkscape:cy="560"
     inkscape:document-units="mm"
     inkscape:current-layer="layer1"
     showgrid="false"
     units="px"
     inkscape:window-width="1848"
     inkscape:window-height="1016"
     inkscape:window-x="72"
     inkscape:window-y="27"
     inkscape:window-maximized="1" />
  <metadata
     id="metadata21096">
    <rdf:RDF>
      <cc:Work
         rdf:about="">
        <dc:format>image/svg+xml</dc:format>
        <dc:type
           rdf:resource="http://purl.org/dc/dcmitype/StillImage" />
        <dc:title></dc:title>
      </cc:Work>
    </rdf:RDF>
  </metadata>
  <g
     inkscape:label="Layer 1"
     inkscape:groupmode="layer"
     id="layer1"
     transform="translate(0,-244.08332)">
    <g
       id="g21739"
       transform="matrix(2.9910111,0,0,2.9910111,279.69727,-170.09834)">
      <g
         style="fill:none;fill-opacity:1;stroke:#ffffff;stroke-opacity:1"
         transform="matrix(0.35277777,0,0,-0.35277777,-81.867808,152.28416)"
         id="g1934">
        <path
           inkscape:connector-curvature="0"
           id="path1936"
           style="fill:none;fill-opacity:1;stroke:#ffffff;stroke-width:2;stroke-linecap:round;stroke-linejoin:round;stroke-miterlimit:4;stroke-dasharray:none;stroke-opacity:1"
           d="M 0,0 H 0.171 C 5.573,0.055 9.908,4.478 9.854,9.88 9.8,15.206 5.496,19.509 0.171,19.563 -0.68,19.562 -1.527,19.447 -2.348,19.22" />
      </g>
      <g
         style="fill:none;fill-opacity:1;stroke:#ffffff;stroke-opacity:1"
         transform="matrix(0.35277777,0,0,-0.35277777,-81.808541,143.65765)"
         id="g1938">
        <path
           inkscape:connector-curvature="0"
           id="path1940"
           style="fill:none;fill-opacity:1;stroke:#ffffff;stroke-width:2;stroke-linecap:round;stroke-linejoin:round;stroke-miterlimit:4;stroke-dasharray:none;stroke-opacity:1"
           d="M 0,0 V 3.668" />
      </g>
      <g
         style="fill:none;fill-opacity:1;stroke:#ffffff;stroke-opacity:1"
         transform="matrix(0.35277777,0,0,-0.35277777,-76.209905,152.06815)"
         id="g1942">
        <path
           inkscape:connector-curvature="0"
           id="path1944"
           style="fill:none;fill-opacity:1;stroke:#ffffff;stroke-width:2;stroke-linecap:round;stroke-linejoin:round;stroke-miterlimit:4;stroke-dasharray:none;stroke-opacity:1"
           d="M 0,0 -3.179,1.834" />
      </g>
      <g
         style="fill:none;fill-opacity:1;stroke:#ffffff;stroke-opacity:1"
         transform="matrix(0.35277777,0,0,-0.35277777,-76.201147,145.5986)"
         id="g1946">
        <path
           inkscape:connector-curvature="0"
           id="path1948"
           style="fill:none;fill-opacity:1;stroke:#ffffff;stroke-width:2;stroke-linecap:round;stroke-linejoin:round;stroke-miterlimit:4;stroke-dasharray:none;stroke-opacity:1"
           d="M 0,0 -3.179,-1.834" />
      </g>
      <path
         d="m -81.920327,152.28243 c 0.952853,0 1.725436,-0.77258 1.725436,-1.72544 0,-0.95285 -0.772583,-1.72508 -1.725436,-1.72508 -0.03034,0 -0.05856,0.007 -0.08819,0.009 0.48013,-2.33504 -1.023762,-4.61751 -3.358798,-5.09764 -0.285044,-0.0586 -0.575027,-0.0882 -0.866069,-0.0882 -1.352903,0.003 -2.624667,0.64346 -3.432528,1.72861 -0.0063,0 -0.01199,-0.002 -0.01799,-0.002 -1.905706,-10e-4 -3.451578,1.5427 -3.452636,3.44841 -0.0011,1.9057 1.542697,3.45157 3.448402,3.45263 h 0.0042 z"
         style="fill:none;fill-opacity:1;stroke:#ffffff;stroke-width:0.70555556;stroke-linecap:round;stroke-linejoin:round;stroke-miterlimit:4;stroke-dasharray:none;stroke-opacity:1"
         id="path1952"
         inkscape:connector-curvature="0" />
    </g>
  </g>
</svg>
