<?xml version="1.0" encoding="UTF-8" standalone="no"?>
<!-- Created with Inkscape (http://www.inkscape.org/) -->

<svg
   xmlns:dc="http://purl.org/dc/elements/1.1/"
   xmlns:cc="http://creativecommons.org/ns#"
   xmlns:rdf="http://www.w3.org/1999/02/22-rdf-syntax-ns#"
   xmlns:svg="http://www.w3.org/2000/svg"
   xmlns="http://www.w3.org/2000/svg"
   xmlns:sodipodi="http://sodipodi.sourceforge.net/DTD/sodipodi-0.dtd"
   xmlns:inkscape="http://www.inkscape.org/namespaces/inkscape"
   width="199"
   height="200"
   viewBox="0 0 52.652082 52.916668"
   version="1.1"
   id="svg21099"
   inkscape:version="0.92.5 (2060ec1f9f, 2020-04-08)"
   sodipodi:docname="10n.svg">
  <defs
     id="defs21093" />
  <sodipodi:namedview
     id="base"
     pagecolor="#ffffff"
     bordercolor="#666666"
     borderopacity="1.0"
     inkscape:pageopacity="0.0"
     inkscape:pageshadow="2"
     inkscape:zoom="1.4"
     inkscape:cx="281.19063"
     inkscape:cy="112.78025"
     inkscape:document-units="mm"
     inkscape:current-layer="layer1"
     showgrid="false"
     units="px"
     inkscape:window-width="1848"
     inkscape:window-height="1016"
     inkscape:window-x="72"
     inkscape:window-y="27"
     inkscape:window-maximized="1"
     inkscape:pagecheckerboard="true" />
  <metadata
     id="metadata21096">
    <rdf:RDF>
      <cc:Work
         rdf:about="">
        <dc:format>image/svg+xml</dc:format>
        <dc:type
           rdf:resource="http://purl.org/dc/dcmitype/StillImage" />
        <dc:title></dc:title>
      </cc:Work>
    </rdf:RDF>
  </metadata>
  <g
     inkscape:label="Layer 1"
     inkscape:groupmode="layer"
     id="layer1"
     transform="translate(0,-244.08332)">
    <g
       id="g2266"
       transform="matrix(0.35277777,0,0,-0.35277777,-511.387,425.71985)"
       style="stroke:#ffffff;stroke-opacity:1">
      <path
         d="m 0,0 c 2.701,-0.039 4.922,2.12 4.96,4.821 0.039,2.7 -2.12,4.921 -4.82,4.96 -0.047,10e-4 -0.094,10e-4 -0.14,0 -0.086,0 -0.166,-0.02 -0.25,-0.025 1.361,6.619 -2.902,13.088 -9.521,14.449 -0.808,0.167 -1.63,0.25 -2.455,0.251 -3.835,-0.009 -7.44,-1.825 -9.73,-4.9 -0.018,0 -0.034,0.006 -0.051,0.006 -5.402,0 -9.782,-4.379 -9.782,-9.782 0,-5.402 4.38,-9.781 9.782,-9.781 z"
         style="fill:none;stroke:#ffffff;stroke-width:2;stroke-linecap:round;stroke-linejoin:round;stroke-miterlimit:4;stroke-dasharray:none;stroke-opacity:1"
         id="path2268"
         inkscape:connector-curvature="0" />
    </g>
    <g
       id="g2270"
       transform="matrix(0.35277777,0,0,-0.35277777,-506.86754,415.99384)"
       style="stroke:#ffffff;stroke-opacity:1">
      <path
         d="M 0,0 V 0 C 0.323,-1.503 1.497,-2.677 3,-3 1.497,-3.323 0.323,-4.497 0,-6 c -0.323,1.503 -1.497,2.677 -3,3 1.503,0.323 2.677,1.497 3,3 z"
         style="fill:none;stroke:#ffffff;stroke-width:2;stroke-linecap:round;stroke-linejoin:round;stroke-miterlimit:4;stroke-dasharray:none;stroke-opacity:1"
         id="path2272"
         inkscape:connector-curvature="0" />
    </g>
    <g
       id="g2274"
       transform="matrix(0.35277777,0,0,-0.35277777,-512.67425,418.33632)"
       style="stroke:#ffffff;stroke-opacity:1">
      <path
         d="M 0,0 C 0.872,5.88 5.916,10.235 11.86,10.24"
         style="fill:none;stroke:#ffffff;stroke-width:2;stroke-linecap:round;stroke-linejoin:round;stroke-miterlimit:4;stroke-dasharray:none;stroke-opacity:1"
         id="path2276"
         inkscape:connector-curvature="0" />
    </g>
    <g
       id="g2278"
       transform="matrix(0.35277777,0,0,-0.35277777,-510.06371,422.88712)"
       style="stroke:#ffffff;stroke-opacity:1">
      <path
         d="M 0,0 0.02,-0.02 C 1.435,-0.575 2.94,-0.859 4.46,-0.86"
         style="fill:none;stroke:#ffffff;stroke-width:2;stroke-linecap:round;stroke-linejoin:round;stroke-miterlimit:4;stroke-dasharray:none;stroke-opacity:1"
         id="path2280"
         inkscape:connector-curvature="0" />
    </g>
    <g
       id="g2282"
       transform="matrix(0.35277777,0,0,-0.35277777,-505.4988,421.9487)"
       style="stroke:#ffffff;stroke-opacity:1">
      <path
         d="M 0,0 C -2.241,-2.262 -5.296,-3.53 -8.48,-3.52"
         style="fill:none;stroke:#ffffff;stroke-width:2;stroke-linecap:round;stroke-linejoin:round;stroke-miterlimit:4;stroke-dasharray:none;stroke-opacity:1"
         id="path2284"
         inkscape:connector-curvature="0" />
    </g>
    <g
       id="g2286"
       transform="matrix(0.35277777,0,0,-0.35277777,-508.49037,414.72381)"
       style="stroke:#ffffff;stroke-opacity:1">
      <path
         d="M 0,0 C -4.689,-4.676 -4.699,-12.268 -0.023,-16.957 2.229,-19.215 5.29,-20.483 8.48,-20.48"
         style="fill:none;stroke:#ffffff;stroke-width:2;stroke-linecap:round;stroke-linejoin:round;stroke-miterlimit:4;stroke-dasharray:none;stroke-opacity:1"
         id="path2288"
         inkscape:connector-curvature="0" />
    </g>
    <g
       id="g22740"
       transform="matrix(2.9928124,0,0,2.9928124,-4.2166784,-682.80265)">
      <g
         style="stroke:#ffffff;stroke-opacity:1"
         transform="matrix(0.35277777,0,0,-0.35277777,12.919007,319.88419)"
         id="g2170">
        <path
           inkscape:connector-curvature="0"
           id="path2172"
           style="fill:none;stroke:#ffffff;stroke-width:2;stroke-linecap:round;stroke-linejoin:round;stroke-miterlimit:4;stroke-dasharray:none;stroke-opacity:1"
           d="M 0,0 C 2.701,-0.002 4.893,2.187 4.894,4.888 4.896,7.589 2.708,9.78 0.006,9.782 H 0 c -0.085,0 -0.165,-0.021 -0.25,-0.026 1.371,6.597 -2.867,13.056 -9.463,14.426 -4.633,0.963 -9.405,-0.84 -12.243,-4.626 -0.018,0 -0.034,0.006 -0.051,0.006 -5.402,-0.055 -9.737,-4.478 -9.683,-9.88 0.054,-5.326 4.358,-9.629 9.683,-9.683 z" />
      </g>
      <g
         style="stroke:#ffffff;stroke-opacity:1"
         transform="matrix(0.35277777,0,0,-0.35277777,14.602471,317.78735)"
         id="g2174">
        <path
           inkscape:connector-curvature="0"
           id="path2176"
           style="fill:none;stroke:#ffffff;stroke-width:2;stroke-linecap:round;stroke-linejoin:round;stroke-miterlimit:4;stroke-dasharray:none;stroke-opacity:1"
           d="M 0,0 H 7.86 C 9.887,-0.002 11.532,1.64 11.534,3.667 11.536,5.693 9.895,7.338 7.868,7.34 H 7.86 C 7.8,7.34 7.74,7.32 7.68,7.32 7.8,7.926 7.861,8.542 7.86,9.16 c 0.01,5.061 -4.085,9.171 -9.146,9.18 -0.005,0 -0.009,0 -0.014,0 -2.758,-0.002 -5.364,-1.261 -7.08,-3.42" />
      </g>
      <g
         style="stroke:#ffffff;stroke-opacity:1"
         transform="matrix(0.35277777,0,0,-0.35277777,7.9857972,321.681)"
         id="g2178">
        <path
           inkscape:connector-curvature="0"
           id="path2180"
           style="fill:none;stroke:#ffffff;stroke-width:2;stroke-linecap:round;stroke-linejoin:round;stroke-miterlimit:4;stroke-dasharray:none;stroke-opacity:1"
           d="M 0,0 -2.368,-10.252" />
      </g>
      <g
         style="stroke:#ffffff;stroke-opacity:1"
         transform="matrix(0.35277777,0,0,-0.35277777,10.755852,322.20448)"
         id="g2182">
        <path
           inkscape:connector-curvature="0"
           id="path2184"
           style="fill:none;stroke:#ffffff;stroke-width:2;stroke-linecap:round;stroke-linejoin:round;stroke-miterlimit:4;stroke-dasharray:none;stroke-opacity:1"
           d="M 0,0 -2.368,-10.252" />
      </g>
      <g
         style="stroke:#ffffff;stroke-opacity:1"
         transform="matrix(0.35277777,0,0,-0.35277777,13.525855,321.681)"
         id="g2186">
        <path
           inkscape:connector-curvature="0"
           id="path2188"
           style="fill:none;stroke:#ffffff;stroke-width:2;stroke-linecap:round;stroke-linejoin:round;stroke-miterlimit:4;stroke-dasharray:none;stroke-opacity:1"
           d="M 0,0 -2.368,-10.252" />
      </g>
    </g>
  </g>
</svg>
