<?xml version="1.0" encoding="UTF-8" standalone="no"?>
<!-- Created with Inkscape (http://www.inkscape.org/) -->

<svg
   xmlns:dc="http://purl.org/dc/elements/1.1/"
   xmlns:cc="http://creativecommons.org/ns#"
   xmlns:rdf="http://www.w3.org/1999/02/22-rdf-syntax-ns#"
   xmlns:svg="http://www.w3.org/2000/svg"
   xmlns="http://www.w3.org/2000/svg"
   xmlns:sodipodi="http://sodipodi.sourceforge.net/DTD/sodipodi-0.dtd"
   xmlns:inkscape="http://www.inkscape.org/namespaces/inkscape"
   width="199"
   height="200"
   viewBox="0 0 52.652082 52.916668"
   version="1.1"
   id="svg21099"
   inkscape:version="0.92.5 (2060ec1f9f, 2020-04-08)"
   sodipodi:docname="13n.svg">
  <defs
     id="defs21093" />
  <sodipodi:namedview
     id="base"
     pagecolor="#ffffff"
     bordercolor="#666666"
     borderopacity="1.0"
     inkscape:pageopacity="0.0"
     inkscape:pageshadow="2"
     inkscape:zoom="1.4"
     inkscape:cx="281.19063"
     inkscape:cy="112.78025"
     inkscape:document-units="mm"
     inkscape:current-layer="layer1"
     showgrid="false"
     units="px"
     inkscape:window-width="1848"
     inkscape:window-height="1016"
     inkscape:window-x="72"
     inkscape:window-y="27"
     inkscape:window-maximized="1"
     inkscape:pagecheckerboard="true" />
  <metadata
     id="metadata21096">
    <rdf:RDF>
      <cc:Work
         rdf:about="">
        <dc:format>image/svg+xml</dc:format>
        <dc:type
           rdf:resource="http://purl.org/dc/dcmitype/StillImage" />
        <dc:title></dc:title>
      </cc:Work>
    </rdf:RDF>
  </metadata>
  <g
     inkscape:label="Layer 1"
     inkscape:groupmode="layer"
     id="layer1"
     transform="translate(0,-244.08332)">
    <g
       id="g2266"
       transform="matrix(0.35277777,0,0,-0.35277777,-511.387,425.71985)"
       style="stroke:#ffffff;stroke-opacity:1">
      <path
         d="m 0,0 c 2.701,-0.039 4.922,2.12 4.96,4.821 0.039,2.7 -2.12,4.921 -4.82,4.96 -0.047,10e-4 -0.094,10e-4 -0.14,0 -0.086,0 -0.166,-0.02 -0.25,-0.025 1.361,6.619 -2.902,13.088 -9.521,14.449 -0.808,0.167 -1.63,0.25 -2.455,0.251 -3.835,-0.009 -7.44,-1.825 -9.73,-4.9 -0.018,0 -0.034,0.006 -0.051,0.006 -5.402,0 -9.782,-4.379 -9.782,-9.782 0,-5.402 4.38,-9.781 9.782,-9.781 z"
         style="fill:none;stroke:#ffffff;stroke-width:2;stroke-linecap:round;stroke-linejoin:round;stroke-miterlimit:4;stroke-dasharray:none;stroke-opacity:1"
         id="path2268"
         inkscape:connector-curvature="0" />
    </g>
    <g
       id="g2270"
       transform="matrix(0.35277777,0,0,-0.35277777,-506.86754,415.99384)"
       style="stroke:#ffffff;stroke-opacity:1">
      <path
         d="M 0,0 V 0 C 0.323,-1.503 1.497,-2.677 3,-3 1.497,-3.323 0.323,-4.497 0,-6 c -0.323,1.503 -1.497,2.677 -3,3 1.503,0.323 2.677,1.497 3,3 z"
         style="fill:none;stroke:#ffffff;stroke-width:2;stroke-linecap:round;stroke-linejoin:round;stroke-miterlimit:4;stroke-dasharray:none;stroke-opacity:1"
         id="path2272"
         inkscape:connector-curvature="0" />
    </g>
    <g
       id="g2274"
       transform="matrix(0.35277777,0,0,-0.35277777,-512.67425,418.33632)"
       style="stroke:#ffffff;stroke-opacity:1">
      <path
         d="M 0,0 C 0.872,5.88 5.916,10.235 11.86,10.24"
         style="fill:none;stroke:#ffffff;stroke-width:2;stroke-linecap:round;stroke-linejoin:round;stroke-miterlimit:4;stroke-dasharray:none;stroke-opacity:1"
         id="path2276"
         inkscape:connector-curvature="0" />
    </g>
    <g
       id="g2278"
       transform="matrix(0.35277777,0,0,-0.35277777,-510.06371,422.88712)"
       style="stroke:#ffffff;stroke-opacity:1">
      <path
         d="M 0,0 0.02,-0.02 C 1.435,-0.575 2.94,-0.859 4.46,-0.86"
         style="fill:none;stroke:#ffffff;stroke-width:2;stroke-linecap:round;stroke-linejoin:round;stroke-miterlimit:4;stroke-dasharray:none;stroke-opacity:1"
         id="path2280"
         inkscape:connector-curvature="0" />
    </g>
    <g
       id="g2282"
       transform="matrix(0.35277777,0,0,-0.35277777,-505.4988,421.9487)"
       style="stroke:#ffffff;stroke-opacity:1">
      <path
         d="M 0,0 C -2.241,-2.262 -5.296,-3.53 -8.48,-3.52"
         style="fill:none;stroke:#ffffff;stroke-width:2;stroke-linecap:round;stroke-linejoin:round;stroke-miterlimit:4;stroke-dasharray:none;stroke-opacity:1"
         id="path2284"
         inkscape:connector-curvature="0" />
    </g>
    <g
       id="g2286"
       transform="matrix(0.35277777,0,0,-0.35277777,-508.49037,414.72381)"
       style="stroke:#ffffff;stroke-opacity:1">
      <path
         d="M 0,0 C -4.689,-4.676 -4.699,-12.268 -0.023,-16.957 2.229,-19.215 5.29,-20.483 8.48,-20.48"
         style="fill:none;stroke:#ffffff;stroke-width:2;stroke-linecap:round;stroke-linejoin:round;stroke-miterlimit:4;stroke-dasharray:none;stroke-opacity:1"
         id="path2288"
         inkscape:connector-curvature="0" />
    </g>
    <g
       id="g22972"
       transform="matrix(2.9809803,0,0,2.9809803,-232.26069,-548.89518)">
      <g
         style="stroke:#ffffff;stroke-opacity:1"
         transform="matrix(0.35277777,0,0,-0.35277777,89.476388,277.42256)"
         id="g2574">
        <path
           inkscape:connector-curvature="0"
           id="path2576"
           style="fill:none;stroke:#ffffff;stroke-width:2;stroke-linecap:round;stroke-linejoin:round;stroke-miterlimit:4;stroke-dasharray:none;stroke-opacity:1"
           d="m 0,0 c 2.701,0 4.891,2.19 4.891,4.891 0,2.701 -2.19,4.891 -4.891,4.891 -0.086,0 -0.166,-0.021 -0.25,-0.026 1.37,6.597 -2.867,13.056 -9.464,14.426 -4.632,0.963 -9.404,-0.84 -12.242,-4.626 -0.018,0 -0.034,0.006 -0.051,0.006 -5.402,0 -9.782,-4.379 -9.782,-9.782 0,-5.402 4.38,-9.781 9.782,-9.781 z" />
      </g>
      <g
         style="stroke:#ffffff;stroke-opacity:1"
         transform="matrix(0.35277777,0,0,-0.35277777,91.160197,275.32572)"
         id="g2578">
        <path
           inkscape:connector-curvature="0"
           id="path2580"
           style="fill:none;stroke:#ffffff;stroke-width:2;stroke-linecap:round;stroke-linejoin:round;stroke-miterlimit:4;stroke-dasharray:none;stroke-opacity:1"
           d="M 0,0 H 7.86 C 9.887,-0.002 11.532,1.64 11.534,3.667 11.536,5.693 9.895,7.338 7.868,7.34 H 7.86 C 7.8,7.34 7.74,7.32 7.68,7.32 7.8,7.926 7.86,8.542 7.86,9.16 7.871,14.221 3.777,18.332 -1.283,18.343 H -1.3 c -2.758,-0.002 -5.364,-1.261 -7.08,-3.42" />
      </g>
      <g
         style="stroke:#ffffff;stroke-opacity:1"
         transform="matrix(0.35277777,0,0,-0.35277777,81.538888,279.38266)"
         id="g2582">
        <path
           inkscape:connector-curvature="0"
           id="path2584"
           style="fill:none;stroke:#ffffff;stroke-width:2;stroke-linecap:round;stroke-linejoin:round;stroke-miterlimit:4;stroke-dasharray:none;stroke-opacity:1"
           d="M 0,0 5.196,-3" />
      </g>
      <g
         style="stroke:#ffffff;stroke-opacity:1"
         transform="matrix(0.35277777,0,0,-0.35277777,81.538888,280.441)"
         id="g2586">
        <path
           inkscape:connector-curvature="0"
           id="path2588"
           style="fill:none;stroke:#ffffff;stroke-width:2;stroke-linecap:round;stroke-linejoin:round;stroke-miterlimit:4;stroke-dasharray:none;stroke-opacity:1"
           d="M 0,0 5.196,3" />
      </g>
      <g
         style="stroke:#ffffff;stroke-opacity:1"
         transform="matrix(0.35277777,0,0,-0.35277777,82.455484,280.97016)"
         id="g2590">
        <path
           inkscape:connector-curvature="0"
           id="path2592"
           style="fill:none;stroke:#ffffff;stroke-width:2;stroke-linecap:round;stroke-linejoin:round;stroke-miterlimit:4;stroke-dasharray:none;stroke-opacity:1"
           d="M 0,0 V 6" />
      </g>
      <g
         style="stroke:#ffffff;stroke-opacity:1"
         transform="matrix(0.35277777,0,0,-0.35277777,85.772248,279.38266)"
         id="g2594">
        <path
           inkscape:connector-curvature="0"
           id="path2596"
           style="fill:none;stroke:#ffffff;stroke-width:2;stroke-linecap:round;stroke-linejoin:round;stroke-miterlimit:4;stroke-dasharray:none;stroke-opacity:1"
           d="M 0,0 5.196,-3" />
      </g>
      <g
         style="stroke:#ffffff;stroke-opacity:1"
         transform="matrix(0.35277777,0,0,-0.35277777,85.772248,280.441)"
         id="g2598">
        <path
           inkscape:connector-curvature="0"
           id="path2600"
           style="fill:none;stroke:#ffffff;stroke-width:2;stroke-linecap:round;stroke-linejoin:round;stroke-miterlimit:4;stroke-dasharray:none;stroke-opacity:1"
           d="M 0,0 5.196,3" />
      </g>
      <g
         style="stroke:#ffffff;stroke-opacity:1"
         transform="matrix(0.35277777,0,0,-0.35277777,86.688818,280.97016)"
         id="g2602">
        <path
           inkscape:connector-curvature="0"
           id="path2604"
           style="fill:none;stroke:#ffffff;stroke-width:2;stroke-linecap:round;stroke-linejoin:round;stroke-miterlimit:4;stroke-dasharray:none;stroke-opacity:1"
           d="M 0,0 V 6" />
      </g>
      <g
         style="stroke:#ffffff;stroke-opacity:1"
         transform="matrix(0.35277777,0,0,-0.35277777,90.005582,279.38266)"
         id="g2606">
        <path
           inkscape:connector-curvature="0"
           id="path2608"
           style="fill:none;stroke:#ffffff;stroke-width:2;stroke-linecap:round;stroke-linejoin:round;stroke-miterlimit:4;stroke-dasharray:none;stroke-opacity:1"
           d="M 0,0 5.196,-3" />
      </g>
      <g
         style="stroke:#ffffff;stroke-opacity:1"
         transform="matrix(0.35277777,0,0,-0.35277777,90.005582,280.441)"
         id="g2610">
        <path
           inkscape:connector-curvature="0"
           id="path2612"
           style="fill:none;stroke:#ffffff;stroke-width:2;stroke-linecap:round;stroke-linejoin:round;stroke-miterlimit:4;stroke-dasharray:none;stroke-opacity:1"
           d="M 0,0 5.196,3" />
      </g>
      <g
         style="stroke:#ffffff;stroke-opacity:1"
         transform="matrix(0.35277777,0,0,-0.35277777,90.922151,280.97016)"
         id="g2614">
        <path
           inkscape:connector-curvature="0"
           id="path2616"
           style="fill:none;stroke:#ffffff;stroke-width:2;stroke-linecap:round;stroke-linejoin:round;stroke-miterlimit:4;stroke-dasharray:none;stroke-opacity:1"
           d="M 0,0 V 6" />
      </g>
    </g>
  </g>
</svg>
